<mxfile host="app.diagrams.net" modified="2023-03-04T02:59:48.142Z" agent="5.0 (Windows NT 10.0; Win64; x64) AppleWebKit/537.36 (KHTML, like Gecko) Chrome/110.0.0.0 Safari/537.36" etag="k5Q1UFfUw5F7FaZCaYYU" version="21.0.2" type="github">
  <diagram name="Page-1" id="8378b5f6-a2b2-b727-a746-972ab9d02e00">
    <mxGraphModel dx="1434" dy="756" grid="1" gridSize="10" guides="1" tooltips="1" connect="0" arrows="1" fold="1" page="1" pageScale="1.5" pageWidth="1169" pageHeight="827" background="none" math="0" shadow="0">
      <root>
        <mxCell id="0" />
        <mxCell id="1" parent="0" />
        <mxCell id="SvcZetnL9h9Qx_WNq1S4-278" value="開始" style="strokeWidth=2;html=1;shape=mxgraph.flowchart.terminator;whiteSpace=wrap;" vertex="1" parent="1">
          <mxGeometry x="320" y="220" width="130" height="60" as="geometry" />
        </mxCell>
        <mxCell id="SvcZetnL9h9Qx_WNq1S4-280" value="" style="rhombus;whiteSpace=wrap;html=1;" vertex="1" parent="1">
          <mxGeometry x="325" y="320" width="120" height="80" as="geometry" />
        </mxCell>
        <mxCell id="SvcZetnL9h9Qx_WNq1S4-281" value="" style="endArrow=none;html=1;rounded=0;exitX=0.5;exitY=-0.037;exitDx=0;exitDy=0;exitPerimeter=0;" edge="1" parent="1" source="SvcZetnL9h9Qx_WNq1S4-280" target="SvcZetnL9h9Qx_WNq1S4-278">
          <mxGeometry width="50" height="50" relative="1" as="geometry">
            <mxPoint x="410" y="360" as="sourcePoint" />
            <mxPoint x="460" y="310" as="targetPoint" />
          </mxGeometry>
        </mxCell>
      </root>
    </mxGraphModel>
  </diagram>
</mxfile>
